<svg width="695" height="193" viewBox="0 0 695 193" fill="none" xmlns="http://www.w3.org/2000/svg">
<g clip-path="url(#clip0)">
<path d="M52.15 141C74.27 132.34 99.34 122.52 95.62 62.43L95.39 58.7C85 41.58 66.43 5.32 64.09 0C58.19 11.9 42.4 44.5 29.17 64.43C21.77 75.58 14.17 86.66 8.4 98.67C1.63 112.67 -1.68 127.17 0.850003 142.67C3 156 10.42 168 20.23 176.76C21.54 153.53 36.23 147.2 52.15 140.96" fill="#44A8DF"/>
<path d="M184.29 59.15C184.29 58.3756 184.598 57.6328 185.145 57.0852C185.693 56.5376 186.436 56.23 187.21 56.23H223.37C242.3 56.23 257.84 71.61 257.84 90.23C257.843 99.3608 254.238 108.123 247.809 114.607C241.381 121.092 232.651 124.773 223.52 124.85H204.29V161C204.27 161.768 203.956 162.499 203.412 163.042C202.869 163.586 202.138 163.9 201.37 163.92H187.21C186.436 163.92 185.693 163.612 185.145 163.065C184.598 162.517 184.29 161.774 184.29 161V59.15ZM222.14 106.08C224.234 106.079 226.307 105.663 228.239 104.857C230.171 104.05 231.925 102.869 233.398 101.382C234.872 99.8943 236.036 98.1298 236.824 96.19C237.612 94.2503 238.008 92.1737 237.99 90.08C237.99 81.61 230.76 75.15 222.14 75.15H204.29V106.08H222.14Z" fill="#44A8DF"/>
<path d="M319 59.15C319.018 58.3802 319.331 57.6467 319.874 57.1013C320.418 56.5559 321.15 56.2403 321.92 56.22H336.55C336.934 56.22 337.315 56.2959 337.67 56.4432C338.025 56.5906 338.347 56.8066 338.618 57.0788C338.89 57.351 339.104 57.6741 339.251 58.0295C339.397 58.3849 339.471 58.7657 339.47 59.15V122.09C339.47 135.16 348.39 145.47 361.78 145.47C375.17 145.47 384.25 135.16 384.25 122.24V59.15C384.249 58.7657 384.323 58.3849 384.469 58.0295C384.616 57.6741 384.83 57.351 385.102 57.0788C385.373 56.8066 385.695 56.5906 386.05 56.4432C386.405 56.2959 386.786 56.22 387.17 56.22H401.79C402.56 56.2403 403.292 56.5559 403.836 57.1013C404.379 57.6467 404.692 58.3802 404.71 59.15V123.15C404.71 146.54 386.09 165.47 361.78 165.47C337.62 165.47 319 146.54 319 123.15V59.15Z" fill="#44A8DF"/>
<path d="M471.55 59.15C471.549 58.7657 471.623 58.3849 471.769 58.0295C471.916 57.6741 472.13 57.351 472.402 57.0788C472.673 56.8066 472.995 56.5906 473.35 56.4432C473.705 56.2959 474.086 56.22 474.47 56.22H488.63C489.4 56.2403 490.132 56.5559 490.676 57.1013C491.219 57.6467 491.532 58.3802 491.55 59.15V145.47H530.79C531.567 145.47 532.312 145.779 532.862 146.328C533.411 146.878 533.72 147.623 533.72 148.4V161C533.717 161.775 533.407 162.518 532.858 163.065C532.309 163.613 531.565 163.92 530.79 163.92H474.47C473.696 163.92 472.953 163.612 472.405 163.065C471.858 162.517 471.55 161.774 471.55 161V59.15Z" fill="#44A8DF"/>
<path d="M592.4 159.94L640.26 56.38C640.475 55.866 640.84 55.4288 641.308 55.1255C641.775 54.8223 642.323 54.667 642.88 54.68H644.42C644.98 54.6468 645.535 54.794 646.005 55.1C646.475 55.406 646.834 55.8547 647.03 56.38L694.43 159.94C694.662 160.371 694.774 160.857 694.753 161.346C694.731 161.836 694.579 162.31 694.31 162.72C694.042 163.129 693.668 163.459 693.228 163.674C692.788 163.889 692.298 163.981 691.81 163.94H678.42C676.11 163.94 675.04 163.02 673.96 160.86L666.42 144.24H620.42L612.88 160.86C612.553 161.776 611.947 162.566 611.146 163.119C610.346 163.672 609.392 163.959 608.42 163.94H595C594.512 163.981 594.022 163.889 593.582 163.674C593.142 163.459 592.768 163.129 592.5 162.72C592.231 162.31 592.079 161.836 592.058 161.346C592.036 160.857 592.148 160.371 592.38 159.94H592.4ZM658.86 127.16L643.49 93.31H643L628 127.16H658.86Z" fill="#44A8DF"/>
<path d="M116.46 96.52C123.68 109.26 127.06 122.4 126.46 135.6C126.073 146.278 122.6 156.615 116.46 165.36C107.28 178.5 94.54 187.1 78.56 190.94C69.0663 193.169 59.1956 193.26 49.6626 191.205C40.1295 189.151 31.1725 185.002 23.44 179.06L23.04 178.58C25.78 156.44 38.88 149.88 53.42 144.2C75.82 135.42 101.1 125.52 99.42 68.66C105.58 78.3 111.22 87.3 116.46 96.52Z" fill="#359D37"/>
<path d="M23 180.87C22.8327 180.87 22.6681 180.827 22.5214 180.747C22.3746 180.667 22.2504 180.551 22.16 180.41C22.0212 180.187 21.976 179.918 22.034 179.661C22.092 179.405 22.2486 179.182 22.47 179.04C23.71 178.26 24.93 177.44 26.11 176.64C30.77 173.5 35.17 170.54 41.31 169.4C48.04 168.16 55.31 168.26 62.26 168.34C64.04 168.34 65.8 168.34 67.54 168.34C80.91 168.34 89.37 164.24 97.72 153.71C97.8911 153.498 98.1394 153.362 98.4104 153.333C98.6814 153.304 98.9528 153.384 99.165 153.555C99.3772 153.726 99.5127 153.974 99.5418 154.245C99.5708 154.516 99.4911 154.788 99.32 155C90.54 166.06 81.64 170.37 67.58 170.37C65.83 170.37 64.06 170.37 62.27 170.37C55.38 170.28 48.27 170.19 41.71 171.37C35.98 172.37 31.71 175.28 27.26 178.3C26.07 179.1 24.84 179.93 23.57 180.73C23.3983 180.833 23.1997 180.881 23 180.87Z" fill="white"/>
</g>
<defs>
<clipPath id="clip0">
<rect width="694.73" height="192.7" fill="white"/>
</clipPath>
</defs>
</svg>
